<svg xmlns="http://www.w3.org/2000/svg" xmlns:v="https://svgstorm.com"
viewBox = "0 0 17 120"
width="17"
height="120">
<g fill="None" fill-opacity="0.0" stroke="#000000" stroke-opacity="0.00" stroke-width="0.3"><path d="
M 0.00 9.00 
C 0.50 9.00 1.00 9.00 1.00 9.00
C 1.15 7.41 2.09 6.26 3.00 5.00
C 3.72 4.00 4.03 3.69 5.00 3.00
C 6.75 1.75 7.72 0.93 10.00 1.00
C 9.75 0.75 10.00 0.00 10.00 0.00
L 0.00 0.00
L 0.00 9.00 Z"/>
</g>
<g fill="None" fill-opacity="0.0" stroke="#577CD9" stroke-opacity="0.16" stroke-width="0.3"><path d="
M 10.00 1.00 
C 10.50 1.02 11.00 1.00 11.00 1.00
C 11.25 0.75 11.00 0.00 11.00 0.00
L 10.00 0.00
C 10.00 0.00 9.75 0.75 10.00 1.00 Z"/>
</g>
<g fill="None" fill-opacity="0.0" stroke="#527CD7" stroke-opacity="0.65" stroke-width="0.3"><path d="
M 11.00 1.00 
C 11.97 1.12 13.75 1.32 14.00 0.00
L 11.00 0.00
C 11.00 0.00 11.25 0.75 11.00 1.00 Z"/>
</g>
<g fill="None" fill-opacity="0.0" stroke="#527CD7" stroke-opacity="0.99" stroke-width="0.3"><path d="
M 11.00 1.00 
C 11.00 1.00 10.50 1.02 10.00 1.00
C 7.72 0.93 6.75 1.75 5.00 3.00
C 4.76 3.33 5.00 4.00 5.00 4.00
C 4.97 4.35 4.35 4.97 4.00 5.00
C 3.50 5.05 3.00 5.00 3.00 5.00
C 2.09 6.26 1.15 7.41 1.00 9.00
C 0.95 9.50 1.00 10.00 1.00 10.00
C 1.16 11.22 1.46 13.54 0.00 14.00
L 0.00 108.00
C 0.34 108.17 1.00 108.67 1.00 109.00
C 1.03 109.02 0.34 109.84 0.00 110.00
L 0.00 111.00
C 1.95 113.35 4.25 116.30 7.00 118.00
C 7.32 118.20 7.74 118.89 8.00 119.00
C 8.47 119.12 9.50 119.00 10.00 119.00
C 10.50 119.00 11.00 119.00 11.00 119.00
C 11.97 118.88 13.75 118.68 14.00 120.00
L 16.00 120.00
C 16.17 119.67 16.67 119.17 17.00 119.00
L 17.00 1.00
C 16.67 0.84 16.17 0.34 16.00 0.00
L 14.00 0.00
C 13.75 1.32 11.97 1.12 11.00 1.00 Z"/>
</g>
<g fill="None" fill-opacity="0.0" stroke="#537CD8" stroke-opacity="0.47" stroke-width="0.3"><path d="
M 17.00 1.00 
L 17.00 0.00
L 16.00 0.00
C 16.17 0.34 16.67 0.84 17.00 1.00 Z"/>
</g>
<g fill="None" fill-opacity="0.0" stroke="#FFFFFF" stroke-opacity="0.00" stroke-width="0.3"><path d="
M 3.00 5.00 
C 3.00 5.00 3.50 5.05 4.00 5.00
C 4.26 4.88 4.88 4.26 5.00 4.00
C 5.00 4.00 4.76 3.33 5.00 3.00
C 4.03 3.69 3.72 4.00 3.00 5.00 Z"/>
</g>
<g fill="None" fill-opacity="0.0" stroke="#527DD7" stroke-opacity="0.64" stroke-width="0.3"><path d="
M 4.00 5.00 
C 4.35 4.97 4.97 4.35 5.00 4.00
C 4.88 4.26 4.26 4.88 4.00 5.00 Z"/>
</g>
<g fill="None" fill-opacity="0.0" stroke="#5F7FDF" stroke-opacity="0.03" stroke-width="0.3"><path d="
M 0.00 10.00 
C 0.50 10.00 1.00 10.00 1.00 10.00
C 1.00 10.00 0.95 9.50 1.00 9.00
C 1.00 9.00 0.50 9.00 0.00 9.00
L 0.00 10.00 Z"/>
</g>
<g fill="None" fill-opacity="0.0" stroke="#527CD7" stroke-opacity="0.65" stroke-width="0.3"><path d="
M 0.00 14.00 
C 1.46 13.54 1.16 11.22 1.00 10.00
C 1.00 10.00 0.50 10.00 0.00 10.00
L 0.00 14.00 Z"/>
</g>
<g fill="None" fill-opacity="0.0" stroke="#527DD7" stroke-opacity="0.61" stroke-width="0.3"><path d="
M 0.00 109.00 
C 0.50 109.00 1.00 109.00 1.00 109.00
C 1.00 108.67 0.34 108.17 0.00 108.00
L 0.00 109.00 Z"/>
</g>
<g fill="None" fill-opacity="0.0" stroke="#557DD9" stroke-opacity="0.29" stroke-width="0.3"><path d="
M 0.00 110.00 
C 0.34 109.84 1.03 109.02 1.00 109.00
C 1.00 109.00 0.50 109.00 0.00 109.00
L 0.00 110.00 Z"/>
</g>
<g fill="None" fill-opacity="0.0" stroke="#000000" stroke-opacity="0.00" stroke-width="0.3"><path d="
M 0.00 120.00 
L 10.00 120.00
C 10.00 119.50 10.00 119.00 10.00 119.00
C 9.50 119.00 8.47 119.12 8.00 119.00
C 7.65 118.91 7.27 118.21 7.00 118.00
C 4.25 116.30 1.95 113.35 0.00 111.00
L 0.00 120.00 Z"/>
</g>
<g fill="None" fill-opacity="0.0" stroke="#FFFFFF" stroke-opacity="0.00" stroke-width="0.3"><path d="
M 8.00 119.00 
C 7.74 118.89 7.32 118.20 7.00 118.00
C 7.27 118.21 7.65 118.91 8.00 119.00 Z"/>
</g>
<g fill="None" fill-opacity="0.0" stroke="#557FDB" stroke-opacity="0.14" stroke-width="0.3"><path d="
M 10.00 120.00 
L 11.00 120.00
C 11.00 119.50 11.00 119.00 11.00 119.00
C 11.00 119.00 10.50 119.00 10.00 119.00
C 10.00 119.00 10.00 119.50 10.00 120.00 Z"/>
</g>
<g fill="None" fill-opacity="0.0" stroke="#527CD7" stroke-opacity="0.64" stroke-width="0.3"><path d="
M 11.00 120.00 
L 14.00 120.00
C 13.75 118.68 11.97 118.88 11.00 119.00
C 11.00 119.00 11.00 119.50 11.00 120.00 Z"/>
</g>
<g fill="None" fill-opacity="0.0" stroke="#527DD7" stroke-opacity="0.49" stroke-width="0.3"><path d="
M 16.00 120.00 
L 17.00 120.00
L 17.00 119.00
C 16.67 119.17 16.17 119.67 16.00 120.00 Z"/>
</g>
<g fill="#000000" fill-opacity="0.00" stroke="None">
<path d="
M 0.00 9.00 
C 0.50 9.00 1.00 9.00 1.00 9.00
C 1.15 7.41 2.09 6.26 3.00 5.00
C 3.72 4.00 4.03 3.69 5.00 3.00
C 6.75 1.75 7.72 0.93 10.00 1.00
C 9.75 0.75 10.00 0.00 10.00 0.00
L 0.00 0.00
L 0.00 9.00 Z"/>
</g>
<g fill="#577CD9" fill-opacity="0.16" stroke="None">
<path d="
M 10.00 1.00 
C 10.50 1.02 11.00 1.00 11.00 1.00
C 11.25 0.75 11.00 0.00 11.00 0.00
L 10.00 0.00
C 10.00 0.00 9.75 0.75 10.00 1.00 Z"/>
</g>
<g fill="#527CD7" fill-opacity="0.65" stroke="None">
<path d="
M 11.00 1.00 
C 11.97 1.12 13.75 1.32 14.00 0.00
L 11.00 0.00
C 11.00 0.00 11.25 0.75 11.00 1.00 Z"/>
</g>
<g fill="#527CD7" fill-opacity="0.99" stroke="None">
<path d="
M 11.00 1.00 
C 11.00 1.00 10.50 1.02 10.00 1.00
C 7.72 0.93 6.75 1.75 5.00 3.00
C 4.76 3.33 5.00 4.00 5.00 4.00
C 4.97 4.35 4.35 4.97 4.00 5.00
C 3.50 5.05 3.00 5.00 3.00 5.00
C 2.09 6.26 1.15 7.41 1.00 9.00
C 0.95 9.50 1.00 10.00 1.00 10.00
C 1.16 11.22 1.46 13.54 0.00 14.00
L 0.00 108.00
C 0.34 108.17 1.00 108.67 1.00 109.00
C 1.03 109.02 0.34 109.84 0.00 110.00
L 0.00 111.00
C 1.95 113.35 4.25 116.30 7.00 118.00
C 7.32 118.20 7.74 118.89 8.00 119.00
C 8.47 119.12 9.50 119.00 10.00 119.00
C 10.50 119.00 11.00 119.00 11.00 119.00
C 11.97 118.88 13.75 118.68 14.00 120.00
L 16.00 120.00
C 16.17 119.67 16.67 119.17 17.00 119.00
L 17.00 1.00
C 16.67 0.84 16.17 0.34 16.00 0.00
L 14.00 0.00
C 13.75 1.32 11.97 1.12 11.00 1.00 Z"/>
</g>
<g fill="#537CD8" fill-opacity="0.47" stroke="None">
<path d="
M 17.00 1.00 
L 17.00 0.00
L 16.00 0.00
C 16.17 0.34 16.67 0.84 17.00 1.00 Z"/>
</g>
<g fill="#FFFFFF" fill-opacity="0.00" stroke="None">
<path d="
M 3.00 5.00 
C 3.00 5.00 3.50 5.05 4.00 5.00
C 4.26 4.88 4.88 4.26 5.00 4.00
C 5.00 4.00 4.76 3.33 5.00 3.00
C 4.03 3.69 3.72 4.00 3.00 5.00 Z"/>
</g>
<g fill="#527DD7" fill-opacity="0.64" stroke="None">
<path d="
M 4.00 5.00 
C 4.35 4.97 4.97 4.35 5.00 4.00
C 4.88 4.26 4.26 4.88 4.00 5.00 Z"/>
</g>
<g fill="#5F7FDF" fill-opacity="0.03" stroke="None">
<path d="
M 0.00 10.00 
C 0.50 10.00 1.00 10.00 1.00 10.00
C 1.00 10.00 0.95 9.50 1.00 9.00
C 1.00 9.00 0.50 9.00 0.00 9.00
L 0.00 10.00 Z"/>
</g>
<g fill="#527CD7" fill-opacity="0.65" stroke="None">
<path d="
M 0.00 14.00 
C 1.46 13.54 1.16 11.22 1.00 10.00
C 1.00 10.00 0.50 10.00 0.00 10.00
L 0.00 14.00 Z"/>
</g>
<g fill="#527DD7" fill-opacity="0.61" stroke="None">
<path d="
M 0.00 109.00 
C 0.50 109.00 1.00 109.00 1.00 109.00
C 1.00 108.67 0.34 108.17 0.00 108.00
L 0.00 109.00 Z"/>
</g>
<g fill="#557DD9" fill-opacity="0.29" stroke="None">
<path d="
M 0.00 110.00 
C 0.34 109.84 1.03 109.02 1.00 109.00
C 1.00 109.00 0.50 109.00 0.00 109.00
L 0.00 110.00 Z"/>
</g>
<g fill="#000000" fill-opacity="0.00" stroke="None">
<path d="
M 0.00 120.00 
L 10.00 120.00
C 10.00 119.50 10.00 119.00 10.00 119.00
C 9.50 119.00 8.47 119.12 8.00 119.00
C 7.65 118.91 7.27 118.21 7.00 118.00
C 4.25 116.30 1.95 113.35 0.00 111.00
L 0.00 120.00 Z"/>
</g>
<g fill="#FFFFFF" fill-opacity="0.00" stroke="None">
<path d="
M 8.00 119.00 
C 7.74 118.89 7.32 118.20 7.00 118.00
C 7.27 118.21 7.65 118.91 8.00 119.00 Z"/>
</g>
<g fill="#557FDB" fill-opacity="0.14" stroke="None">
<path d="
M 10.00 120.00 
L 11.00 120.00
C 11.00 119.50 11.00 119.00 11.00 119.00
C 11.00 119.00 10.50 119.00 10.00 119.00
C 10.00 119.00 10.00 119.50 10.00 120.00 Z"/>
</g>
<g fill="#527CD7" fill-opacity="0.64" stroke="None">
<path d="
M 11.00 120.00 
L 14.00 120.00
C 13.75 118.68 11.97 118.88 11.00 119.00
C 11.00 119.00 11.00 119.50 11.00 120.00 Z"/>
</g>
<g fill="#527DD7" fill-opacity="0.49" stroke="None">
<path d="
M 16.00 120.00 
L 17.00 120.00
L 17.00 119.00
C 16.67 119.17 16.17 119.67 16.00 120.00 Z"/>
</g>
</svg>